STARTFONT 2.1
COMMENT $XFree86$
COMMENT  
COMMENT  Copyright 1988 Bitstream, Inc., Cambridge, Massachusetts, USA
COMMENT  Bitstream and Charter are registered trademarks of Bitstream, Inc.
COMMENT  
COMMENT  The names "Bitstream" and "Charter" are registered trademarks of
COMMENT  Bitstream, Inc.  Permission to use these trademarks is hereby
COMMENT  granted only in association with the images described in this file.
COMMENT  
COMMENT  Permission to use, copy, modify, and distribute this software and
COMMENT  its documentation for any purpose and without fee is hereby
COMMENT  granted, provided that the above copyright notice appear in all
COMMENT  copies and that both that copyright notice and this permission
COMMENT  notice appear in supporting documentation, and that the name of
COMMENT  Bitstream not be used in advertising or publicity pertaining to
COMMENT  distribution of the software without specific, written prior
COMMENT  permission.  Bitstream makes no representations about the
COMMENT  suitability of this software for any purpose.  It is provided "as
COMMENT  is" without express or implied warranty.
COMMENT  
COMMENT  BITSTREAM DISCLAIMS ALL WARRANTIES WITH REGARD TO THIS SOFTWARE,
COMMENT  INCLUDING ALL IMPLIED WARRANTIES OF MERCHANTABILITY AND FITNESS, IN
COMMENT  NO EVENT SHALL BITSTREAM BE LIABLE FOR ANY SPECIAL, INDIRECT OR
COMMENT  CONSEQUENTIAL DAMAGES OR ANY DAMAGES WHATSOEVER RESULTING FROM LOSS
COMMENT  OF USE, DATA OR PROFITS, WHETHER IN AN ACTION OF CONTRACT,
COMMENT  NEGLIGENCE OR OTHER TORTIOUS ACTION, ARISING OUT OF OR IN
COMMENT  CONNECTION WITH THE USE OR PERFORMANCE OF THIS SOFTWARE.
COMMENT  
COMMENT  
COMMENT Fontware CVTBDF v1.0
FONT -Bitstream-Charter-Medium-R-Normal--25-240-75-75-P-139-ISO8859-1
SIZE 24 75 75
FONTBOUNDINGBOX 25 30 -2 -6
STARTPROPERTIES 22
COMMENT Begin LogicalFontDescription
FONTNAME_REGISTRY ""
FAMILY_NAME "Charter"
FOUNDRY "Bitstream"
WEIGHT_NAME "Medium"
SETWIDTH_NAME "Normal"
SLANT "R"
ADD_STYLE_NAME ""

STARTCHAR space
ENCODING 32
SWIDTH 278 0
DWIDTH 7 0
BBX 1 1 0 0
BITMAP
00
ENDCHAR
STARTCHAR exclam
ENCODING 33
SWIDTH 338 0
DWIDTH 8 0
BBX 3 17 3 0
BITMAP
e0
e0
e0
e0
e0
e0
e0
e0
40
40
40
40
00
00
e0
e0
e0
ENDCHAR
STARTCHAR quotedbl
ENCODING 34
SWIDTH 331 0
DWIDTH 8 0
BBX 6 7 1 11
BITMAP
cc
cc
cc
cc
cc
44
44
ENDCHAR
STARTCHAR numbersign
ENCODING 35
SWIDTH 745 0
DWIDTH 19 0
BBX 16 18 1 0
BITMAP
008400
018400
010c00
010800
030800
021800
7fff00
063000
043000
042000
0c2000
fffe00
084000
10c000
108000
308000
218000
210000
ENDCHAR
STARTCHAR dollar
ENCODING 36
SWIDTH 556 0
DWIDTH 14 0
BBX 12 22 1 -3
BITMAP
0400
0400
1fe0
7460
6420
c420
c400
c400
f400
7c00
3fc0
07e0
04f0
0430
8430
8430
8460
c4e0
ff80
0400
0400
0400
ENDCHAR
STARTCHAR percent
ENCODING 37
SWIDTH 852 0
DWIDTH 21 0
BBX 20 18 1 0
BITMAP
3c0300
660200
420600
c30400
c30c00
c31800
c31000
c333c0
422660
664420
3ccc30
008c30
018c30
010c30
020c30
060420
040660
0c03c0
ENDCHAR
STARTCHAR ampersand
ENCODING 38
SWIDTH 704 0
DWIDTH 18 0
BBX 16 17 1 0
BITMAP
1f0000
318000
60c000
60c000
60c000
70c000
398000
1e0000
3e3f00
670c00
c38800
c1d800
c0f000
c07000
e07000
70f800
3f1f00
ENDCHAR
STARTCHAR quoteright
ENCODING 39
SWIDTH 201 0
DWIDTH 5 0
BBX 3 7 1 11
BITMAP
40
e0
e0
20
20
40
c0
ENDCHAR
STARTCHAR parenleft
ENCODING 40
SWIDTH 417 0
DWIDTH 10 0
BBX 7 22 2 -4
BITMAP
06
1c
30
30
60
60
c0
c0
c0
c0
c0
c0
c0
c0
c0
c0
60
60
30
30
1c
06
ENDCHAR
STARTCHAR parenright
ENCODING 41
SWIDTH 417 0
DWIDTH 10 0
BBX 7 22 1 -4
BITMAP
c0
70
18
18
0c
0c
06
06
06
06
06
06
06
06
06
06
0c
0c
08
18
70
c0
ENDCHAR
STARTCHAR asterisk
ENCODING 42
SWIDTH 500 0
DWIDTH 12 0
BBX 10 10 1 8
BITMAP
0400
0c00
0c00
4c80
f5c0
0e00
0c00
1200
3300
2100
ENDCHAR
STARTCHAR plus
ENCODING 43
SWIDTH 833 0
DWIDTH 21 0
BBX 15 15 3 0
BITMAP
0100
0100
0100
0100
0100
0100
0100
fffe
0100
0100
0100
0100
0100
0100
0100
ENDCHAR
STARTCHAR comma
ENCODING 44
SWIDTH 278 0
DWIDTH 7 0
BBX 4 7 1 -4
BITMAP
60
70
70
10
10
20
c0
ENDCHAR
STARTCHAR hyphen
ENCODING 45
SWIDTH 319 0
DWIDTH 8 0
BBX 6 1 1 5
BITMAP
fc
ENDCHAR
STARTCHAR period
ENCODING 46
SWIDTH 278 0
DWIDTH 7 0
BBX 3 3 2 0
BITMAP
e0
e0
e0
ENDCHAR
STARTCHAR slash
ENCODING 47
SWIDTH 481 0
DWIDTH 12 0
BBX 12 19 -1 -2
BITMAP
0030
0020
0060
0040
00c0
0180
0100
0300
0200
0600
0400
0c00
0800
1800
1000
2000
6000
4000
c000
ENDCHAR
STARTCHAR zero
ENCODING 48
SWIDTH 556 0
DWIDTH 14 0
BBX 12 17 1 0
BITMAP
1f80
30c0
6060
6060
c030
c030
c030
c030
c030
c030
c030
c030
c030
6060
6060
30c0
1f80
ENDCHAR
STARTCHAR one
ENCODING 49
SWIDTH 556 0
DWIDTH 14 0
BBX 8 17 3 0
BITMAP
0c00
7c00
ec00
0c00
0c00
0c00
0c00
0c00
0c00
0c00
0c00
0c00
0c00
0c00
0c00
0c00
7f00
ENDCHAR
STARTCHAR two
ENCODING 50
SWIDTH 556 0
DWIDTH 14 0
BBX 12 17 1 0
BITMAP
3f80
41c0
c0e0
c060
c060
0060
0060
00c0
01c0
0180
0700
0e00
1800
3030
4030
fff0
fff0
ENDCHAR
STARTCHAR three
ENCODING 51
SWIDTH 556 0
DWIDTH 14 0
BBX 12 17 1 0
BITMAP
3f80
40e0
c060
c060
0060
0060
01c0
1f00
1fc0
00e0
0070
0030
0030
c030
c060
e1e0
7f80
ENDCHAR
STARTCHAR four
ENCODING 52
SWIDTH 556 0
DWIDTH 14 0
BBX 13 18 1 -1
BITMAP
00c0
01c0
01c0
03c0
06c0
0cc0
18c0
18c0
30c0
60c0
c0c0
fff8
00c0
00c0
00c0
00c0
00c0
00c0
ENDCHAR
STARTCHAR five
ENCODING 53
SWIDTH 556 0
DWIDTH 14 0
BBX 12 17 1 0
BITMAP
3fe0
3fe0
3000
3000
3000
3000
3000
3fc0
00e0
0070
0030
0030
0030
2030
f060
70c0
3f80
ENDCHAR
STARTCHAR six
ENCODING 54
SWIDTH 556 0
DWIDTH 14 0
BBX 12 18 1 0
BITMAP
01c0
0e00
1800
3000
7000
6000
6000
dfc0
e0e0
c060
c030
c030
c030
c030
6030
6060
30c0
1f80
ENDCHAR
STARTCHAR seven
ENCODING 55
SWIDTH 556 0
DWIDTH 14 0
BBX 12 18 1 -1
BITMAP
fff0
fff0
c060
8060
00c0
00c0
0180
0180
0300
0300
0600
0400
0c00
0800
1800
1000
3000
6000
ENDCHAR
STARTCHAR eight
ENCODING 56
SWIDTH 556 0
DWIDTH 14 0
BBX 12 17 1 0
BITMAP
1f80
38c0
6060
6060
6060
7060
7840
3ec0
1f80
61e0
4070
c030
c030
c030
6060
70e0
1f80
ENDCHAR
STARTCHAR nine
ENCODING 57
SWIDTH 556 0
DWIDTH 14 0
BBX 12 18 1 -1
BITMAP
1f80
30e0
6060
c030
c030
c030
c030
c030
e030
7070
3fe0
0060
00c0
0180
0700
0e00
3800
6000
ENDCHAR
STARTCHAR colon
ENCODING 58
SWIDTH 319 0
DWIDTH 8 0
BBX 3 12 3 0
BITMAP
e0
e0
e0
00
00
00
00
00
00
e0
e0
e0
ENDCHAR
STARTCHAR semicolon
ENCODING 59
SWIDTH 319 0
DWIDTH 8 0
BBX 4 16 2 -4
BITMAP
70
70
70
00
00
00
00
00
00
60
70
70
10
10
20
c0
ENDCHAR
STARTCHAR less
ENCODING 60
SWIDTH 833 0
DWIDTH 21 0
BBX 14 13 3 1
BITMAP
0004
003c
00f0
0380
1e00
7800
c000
7800
1e00
0380
00f0
003c
0004
ENDCHAR
STARTCHAR equal
ENCODING 61
SWIDTH 833 0
DWIDTH 21 0
BBX 15 5 3 5
BITMAP
fffe
0000
0000
0000
fffe
ENDCHAR
STARTCHAR greater
ENCODING 62
SWIDTH 833 0
DWIDTH 21 0
BBX 14 13 4 1
BITMAP
8000
f000
3c00
0700
01e0
0078
000c
0078
01e0
0700
3c00
f000
8000
ENDCHAR
STARTCHAR question
ENCODING 63
SWIDTH 486 0
DWIDTH 12 0
BBX 9 17 1 0
BITMAP
7e00
e700
c180
0180
0180
0180
0300
0600
1c00
1000
1000
1000
0000
0000
3800
3800
3800
ENDCHAR
STARTCHAR at
ENCODING 64
SWIDTH 942 0
DWIDTH 23 0
BBX 19 21 2 -4
BITMAP
00fc00
070300
0c0080
180040
300040
207e20
618e20
630c20
c30c20
c60c20
c60c20
c60c40
c61840
c73880
63cf00
618e00
600000
300000
180080
0e0300
03fc00
ENDCHAR
STARTCHAR A
ENCODING 65
SWIDTH 639 0
DWIDTH 16 0
BBX 16 17 0 0
BITMAP
018000
03c000
03c000
02c000
06e000
066000
046000
0c7000
0c3000
083000
1ff800
101800
101800
300c00
200c00
600e00
f81f00
ENDCHAR
STARTCHAR B
ENCODING 66
SWIDTH 604 0
DWIDTH 15 0
BBX 13 17 1 0
BITMAP
ffc0
30e0
3070
3030
3030
3030
3070
30e0
3fc0
3070
3038
3018
3018
3018
3038
3070
ffc0
ENDCHAR
STARTCHAR C
ENCODING 67
SWIDTH 632 0
DWIDTH 16 0
BBX 14 17 1 0
BITMAP
07f8
1c0c
3004
7004
6000
c000
c000
c000
c000
c000
c000
e000
6004
7004
3804
1c0c
07f8
ENDCHAR
STARTCHAR D
ENCODING 68
SWIDTH 694 0
DWIDTH 17 0
BBX 15 17 1 0
BITMAP
ffc0
3070
3018
300c
300c
3006
3006
3006
3006
3006
3006
3006
300c
300c
3018
3070
ffc0
ENDCHAR
STARTCHAR E
ENCODING 69
SWIDTH 576 0
DWIDTH 14 0
BBX 12 17 1 0
BITMAP
ffe0
3060
3060
3020
3000
3000
3080
3080
3f80
3080
3080
3000
3000
3010
3030
3030
fff0
ENDCHAR
STARTCHAR F
ENCODING 70
SWIDTH 537 0
DWIDTH 13 0
BBX 11 17 1 0
BITMAP
ffe0
3020
3020
3020
3000
3000
3040
3040
3fc0
3040
3040
3000
3000
3000
3000
3000
fc00
ENDCHAR
STARTCHAR G
ENCODING 71
SWIDTH 694 0
DWIDTH 17 0
BBX 15 17 1 0
BITMAP
07f8
3c18
7018
6008
6000
c000
c000
c000
c000
c07e
c018
c018
6018
6018
3018
1c18
07f0
ENDCHAR
STARTCHAR H
ENCODING 72
SWIDTH 738 0
DWIDTH 18 0
BBX 16 17 1 0
BITMAP
fc3f00
300c00
300c00
300c00
300c00
300c00
300c00
300c00
3ffc00
300c00
300c00
300c00
300c00
300c00
300c00
300c00
fc3f00
ENDCHAR
STARTCHAR I
ENCODING 73
SWIDTH 324 0
DWIDTH 8 0
BBX 6 17 1 0
BITMAP
fc
30
30
30
30
30
30
30
30
30
30
30
30
30
30
30
fc
ENDCHAR
STARTCHAR J
ENCODING 74
SWIDTH 444 0
DWIDTH 11 0
BBX 10 17 0 0
BITMAP
0fc0
0300
0300
0300
0300
0300
0300
0300
0300
0300
0300
0300
8300
8300
8600
ce00
fc00
ENDCHAR
STARTCHAR K
ENCODING 75
SWIDTH 611 0
DWIDTH 16 0
BBX 15 17 1 0
BITMAP
fc7c
3010
3030
3060
30c0
3180
3100
3200
3f00
3380
3180
31c0
30e0
3060
3030
3038
fc1e
ENDCHAR
STARTCHAR L
ENCODING 76
SWIDTH 520 0
DWIDTH 13 0
BBX 12 17 1 0
BITMAP
fc00
3000
3000
3000
3000
3000
3000
3000
3000
3000
3000
3000
3010
3030
3030
3030
fff0
ENDCHAR
STARTCHAR M
ENCODING 77
SWIDTH 866 0
DWIDTH 22 0
BBX 20 17 1 0
BITMAP
f801f0
3803c0
3c03c0
2c02c0
2c06c0
2604c0
2604c0
270cc0
2308c0
2318c0
2390c0
2190c0
21b0c0
20e0c0
20e0c0
20e0c0
f843f0
ENDCHAR
STARTCHAR N
ENCODING 78
SWIDTH 713 0
DWIDTH 18 0
BBX 16 17 1 0
BITMAP
f01f00
380400
3c0400
2c0400
2e0400
270400
230400
238400
21c400
20c400
20e400
207400
203400
203c00
201c00
200c00
f80c00
ENDCHAR
STARTCHAR O
ENCODING 79
SWIDTH 731 0
DWIDTH 18 0
BBX 16 17 1 0
BITMAP
07e000
3c3c00
300c00
600600
600600
c00300
c00300
c00300
c00300
c00300
c00300
c00300
600600
600600
300c00
1c3800
07e000
ENDCHAR
STARTCHAR P
ENCODING 80
SWIDTH 558 0
DWIDTH 14 0
BBX 12 17 1 0
BITMAP
ff80
31e0
3060
3030
3030
3030
3030
3030
3060
30e0
3f80
3000
3000
3000
3000
3000
fc00
ENDCHAR
STARTCHAR Q
ENCODING 81
SWIDTH 731 0
DWIDTH 18 0
BBX 16 21 1 -4
BITMAP
07e000
3c3c00
300c00
600600
600600
c00300
c00300
c00300
c00300
c00300
c00300
c00300
600600
600600
300c00
3c3c00
07f000
018000
01c000
01e000
007e00
ENDCHAR
STARTCHAR R
ENCODING 82
SWIDTH 646 0
DWIDTH 16 0
BBX 15 17 1 0
BITMAP
ffc0
30e0
3070
3030
3030
3030
3030
30e0
3f80
30c0
3060
3060
3020
3030
3030
3038
fc1e
ENDCHAR
STARTCHAR S
ENCODING 83
SWIDTH 556 0
DWIDTH 14 0
BBX 12 17 1 0
BITMAP
3fe0
7060
e020
c020
c000
e000
f000
7e00
3fc0
07e0
00e0
0030
8030
8030
8060
c0e0
ff80
ENDCHAR
STARTCHAR T
ENCODING 84
SWIDTH 597 0
DWIDTH 15 0
BBX 14 17 1 0
BITMAP
fffc
c30c
c30c
8304
0300
0300
0300
0300
0300
0300
0300
0300
0300
0300
0300
0300
0fc0
ENDCHAR
STARTCHAR U
ENCODING 85
SWIDTH 694 0
DWIDTH 17 0
BBX 15 17 1 0
BITMAP
fc7e
3018
3018
3018
3018
3018
3018
3018
3018
3018
3018
3018
3018
3018
3830
1c70
0fc0
ENDCHAR
STARTCHAR V
ENCODING 86
SWIDTH 618 0
DWIDTH 15 0
BBX 16 17 -1 0
BITMAP
f81f00
300400
300400
380c00
180800
180800
1c1800
0c1000
0c1000
0e3000
062000
076000
076000
034000
03c000
03c000
018000
ENDCHAR
STARTCHAR W
ENCODING 87
SWIDTH 928 0
DWIDTH 23 0
BBX 23 17 0 0
BITMAP
fc183e
301c08
301c08
383c08
183e18
182618
182610
1c6610
0c4310
0c4330
0ec320
0ec3a0
0681a0
0781e0
0781e0
0300c0
0300c0
ENDCHAR
STARTCHAR X
ENCODING 88
SWIDTH 600 0
DWIDTH 15 0
BBX 15 17 0 0
BITMAP
fc3e
3818
1810
1c30
0e60
0640
07c0
0380
0380
03c0
06c0
0ce0
0860
1870
3038
2018
f87e
ENDCHAR
STARTCHAR Y
ENCODING 89
SWIDTH 586 0
DWIDTH 15 0
BBX 16 17 0 0
BITMAP
fc1f00
300c00
380c00
1c1800
0c1000
0e3000
066000
074000
03c000
018000
018000
018000
018000
018000
018000
018000
07e000
ENDCHAR
STARTCHAR Z
ENCODING 90
SWIDTH 586 0
DWIDTH 15 0
BBX 13 17 1 0
BITMAP
7ff8
4030
4070
40e0
00c0
01c0
0380
0380
0700
0e00
0e00
1c00
3800
3818
7018
e018
fff8
ENDCHAR
STARTCHAR bracketleft
ENCODING 91
SWIDTH 421 0
DWIDTH 10 0
BBX 6 21 3 -3
BITMAP
fc
c0
c0
c0
c0
c0
c0
c0
c0
c0
c0
c0
c0
c0
c0
c0
c0
c0
c0
c0
fc
ENDCHAR
STARTCHAR backslash
ENCODING 92
SWIDTH 481 0
DWIDTH 12 0
BBX 12 19 0 -2
BITMAP
c000
6000
2000
3000
1000
1800
0800
0c00
0400
0600
0200
0100
0100
0080
00c0
0040
0060
0020
0030
ENDCHAR
STARTCHAR bracketright
ENCODING 93
SWIDTH 421 0
DWIDTH 10 0
BBX 6 21 1 -3
BITMAP
fc
0c
0c
0c
0c
0c
0c
0c
0c
0c
0c
0c
0c
0c
0c
0c
0c
0c
0c
0c
fc
ENDCHAR
STARTCHAR asciicircum
ENCODING 94
SWIDTH 1000 0
DWIDTH 25 0
BBX 15 7 5 11
BITMAP
0380
07c0
0c60
1830
3018
600c
c006
ENDCHAR
STARTCHAR underscore
ENCODING 95
SWIDTH 500 0
DWIDTH 12 0
BBX 12 1 0 -6
BITMAP
fff0
ENDCHAR
STARTCHAR quoteleft
ENCODING 96
SWIDTH 201 0
DWIDTH 5 0
BBX 3 7 1 11
BITMAP
60
40
80
80
e0
e0
60
ENDCHAR
STARTCHAR a
ENCODING 97
SWIDTH 507 0
DWIDTH 13 0
BBX 12 12 1 0
BITMAP
1f80
61c0
60c0
00c0
03c0
1cc0
60c0
c0c0
c0c0
c0c0
e3c0
7cf0
ENDCHAR
STARTCHAR b
ENCODING 98
SWIDTH 539 0
DWIDTH 13 0
BBX 12 18 0 0
BITMAP
3000
f000
3000
3000
3000
3000
3fc0
30e0
3060
3030
3030
3030
3030
3030
3030
3060
30c0
3f80
ENDCHAR
STARTCHAR c
ENCODING 99
SWIDTH 446 0
DWIDTH 11 0
BBX 9 12 1 0
BITMAP
1e00
3380
6380
4380
c000
c000
c000
c000
c000
6000
7080
3f00
ENDCHAR
STARTCHAR d
ENCODING 100
SWIDTH 565 0
DWIDTH 13 0
BBX 12 18 1 0
BITMAP
00c0
03c0
00c0
00c0
00c0
00c0
0fc0
30c0
60c0
40c0
c0c0
c0c0
c0c0
c0c0
e0c0
60c0
7bc0
3ef0
ENDCHAR
STARTCHAR e
ENCODING 101
SWIDTH 491 0
DWIDTH 12 0
BBX 10 12 1 0
BITMAP
1f00
3180
60c0
40c0
c0c0
ffc0
c000
c000
c000
6000
7040
1f80
ENDCHAR
STARTCHAR f
ENCODING 102
SWIDTH 321 0
DWIDTH 8 0
BBX 8 18 1 0
BITMAP
0700
1b00
1000
3000
3000
3000
fe00
3000
3000
3000
3000
3000
3000
3000
3000
3000
3000
fc00
ENDCHAR
STARTCHAR g
ENCODING 103
SWIDTH 523 0
DWIDTH 13 0
BBX 12 18 1 -6
BITMAP
1f00
31f0
60c0
60c0
60c0
60c0
3180
1f00
1800
1800
1e00
1fc0
21e0
6060
c060
e060
70c0
3f00
ENDCHAR
STARTCHAR h
ENCODING 104
SWIDTH 564 0
DWIDTH 14 0
BBX 13 18 1 0
BITMAP
3000
f000
3000
3000
3000
3000
3180
37c0
3860
3060
3060
3060
3060
3060
3060
3060
3060
fcf8
ENDCHAR
STARTCHAR i
ENCODING 105
SWIDTH 280 0
DWIDTH 7 0
BBX 6 18 1 0
BITMAP
30
38
30
00
00
00
30
f0
30
30
30
30
30
30
30
30
30
fc
ENDCHAR
STARTCHAR j
ENCODING 106
SWIDTH 266 0
DWIDTH 7 0
BBX 7 24 -2 -6
BITMAP
06
0e
06
00
00
00
06
1e
06
06
06
06
06
06
06
06
06
06
06
06
06
84
ec
f0
ENDCHAR
STARTCHAR k
ENCODING 107
SWIDTH 518 0
DWIDTH 13 0
BBX 12 18 1 0
BITMAP
3000
f000
3000
3000
3000
3000
31e0
30c0
3180
3300
3200
3e00
3300
3380
3180
30c0
30c0
fc70
ENDCHAR
STARTCHAR l
ENCODING 108
SWIDTH 282 0
DWIDTH 7 0
BBX 6 18 1 0
BITMAP
30
f0
30
30
30
30
30
30
30
30
30
30
30
30
30
30
30
fc
ENDCHAR
STARTCHAR m
ENCODING 109
SWIDTH 843 0
DWIDTH 21 0
BBX 20 12 1 0
BITMAP
33c700
ffdf80
3060c0
3060c0
3060c0
3060c0
3060c0
3060c0
3060c0
3060c0
3060c0
fcf9f0
ENDCHAR
STARTCHAR n
ENCODING 110
SWIDTH 569 0
DWIDTH 14 0
BBX 13 12 1 0
BITMAP
33c0
ffe0
3060
3060
3060
3060
3060
3060
3060
3060
3060
fcf8
ENDCHAR
STARTCHAR o
ENCODING 111
SWIDTH 539 0
DWIDTH 13 0
BBX 11 12 1 0
BITMAP
1f00
3180
60c0
c060
c060
c060
c060
c060
c060
60c0
3180
1f00
ENDCHAR
STARTCHAR p
ENCODING 112
SWIDTH 551 0
DWIDTH 14 0
BBX 12 18 1 -6
BITMAP
3380
ffe0
3060
3070
3030
3030
3030
3030
3030
3060
30c0
3f80
3000
3000
3000
3000
3000
fc00
ENDCHAR
STARTCHAR q
ENCODING 113
SWIDTH 531 0
DWIDTH 13 0
BBX 12 18 1 -6
BITMAP
0fc0
30c0
60c0
40c0
c0c0
c0c0
c0c0
c0c0
c0c0
60c0
70c0
3fc0
00c0
00c0
00c0
00c0
00c0
03f0
ENDCHAR
STARTCHAR r
ENCODING 114
SWIDTH 382 0
DWIDTH 10 0
BBX 9 12 1 0
BITMAP
3380
f780
3880
3000
3000
3000
3000
3000
3000
3000
3000
fc00
ENDCHAR
STARTCHAR s
ENCODING 115
SWIDTH 400 0
DWIDTH 10 0
BBX 8 12 1 0
BITMAP
3f00
6300
c300
c000
e000
7c00
1e00
0700
8300
8300
8600
fc00
ENDCHAR
STARTCHAR t
ENCODING 116
SWIDTH 335 0
DWIDTH 8 0
BBX 8 15 0 0
BITMAP
1000
1000
3000
ff00
3000
3000
3000
3000
3000
3000
3000
3000
3000
3800
1f00
ENDCHAR
STARTCHAR u
ENCODING 117
SWIDTH 569 0
DWIDTH 14 0
BBX 13 12 1 0
BITMAP
3060
f1e0
3060
3060
3060
3060
3060
3060
3060
3060
38e0
1f78
ENDCHAR
STARTCHAR v
ENCODING 118
SWIDTH 494 0
DWIDTH 13 0
BBX 13 12 0 0
BITMAP
fcf8
3020
3020
1860
1840
18c0
0c80
0c80
0500
0700
0700
0200
ENDCHAR
STARTCHAR w
ENCODING 119
SWIDTH 771 0
DWIDTH 19 0
BBX 19 12 0 0
BITMAP
f841e0
60e0c0
20e080
30e180
31b180
313100
193300
1b1b00
1a1a00
1e1e00
0e0e00
0c0c00
ENDCHAR
STARTCHAR x
ENCODING 120
SWIDTH 504 0
DWIDTH 13 0
BBX 13 12 0 0
BITMAP
fcf0
3860
18c0
1c80
0f00
0700
0700
0f80
19c0
10c0
20e0
f9f8
ENDCHAR
STARTCHAR y
ENCODING 121
SWIDTH 495 0
DWIDTH 13 0
BBX 13 18 0 -6
BITMAP
fc78
3020
3020
3860
1840
1840
1cc0
0c80
0d80
0700
0700
0700
0200
0200
0400
0400
6800
7000
ENDCHAR
STARTCHAR z
ENCODING 122
SWIDTH 468 0
DWIDTH 12 0
BBX 10 12 1 0
BITMAP
ffc0
c180
c300
0700
0600
0c00
1c00
3800
3040
7040
e0c0
ffc0
ENDCHAR
STARTCHAR braceleft
ENCODING 123
SWIDTH 486 0
DWIDTH 12 0
BBX 9 20 1 -3
BITMAP
0380
0600
0c00
0c00
0c00
0c00
0c00
0c00
1800
e000
1800
0c00
0c00
0c00
0c00
0c00
0c00
0c00
0600
0380
ENDCHAR
STARTCHAR bar
ENCODING 124
SWIDTH 500 0
DWIDTH 12 0
BBX 1 25 6 -6
BITMAP
80
80
80
80
80
80
80
80
80
80
80
80
80
80
80
80
80
80
80
80
80
80
80
80
80
ENDCHAR
STARTCHAR braceright
ENCODING 125
SWIDTH 486 0
DWIDTH 12 0
BBX 9 20 1 -3
BITMAP
e000
3000
1800
1800
1800
1800
1800
1800
0c00
0380
0c00
1800
1800
1800
1800
1800
1800
1800
3000
e000
ENDCHAR
STARTCHAR c0126
ENCODING 126
SWIDTH 1000 0
DWIDTH 25 0
BBX 15 2 5 14
BITMAP
3f06
c1f8
ENDCHAR
STARTCHAR space
ENCODING 160
SWIDTH 278 0
DWIDTH 7 0
BBX 1 1 0 0
BITMAP
00
ENDCHAR
STARTCHAR exclamdown
ENCODING 161
SWIDTH 338 0
DWIDTH 8 0
BBX 3 17 3 0
BITMAP
e0
e0
e0
00
00
40
40
40
40
60
e0
e0
e0
e0
e0
e0
e0
ENDCHAR
STARTCHAR cent
ENCODING 162
SWIDTH 556 0
DWIDTH 14 0
BBX 11 17 1 -2
BITMAP
0400
0400
0400
1fe0
3460
6460
6460
c400
c400
c400
c400
c460
6460
3460
1fe0
0400
0400
ENDCHAR
STARTCHAR sterling
ENCODING 163
SWIDTH 556 0
DWIDTH 14 0
BBX 12 17 1 0
BITMAP
03e0
0e30
0c30
1820
1800
1800
1800
1800
7fc0
1800
1800
1800
1800
1000
2000
fff0
fff0
ENDCHAR
STARTCHAR currency
ENCODING 164
SWIDTH 606 0
DWIDTH 15 0
BBX 12 12 2 5
BITMAP
8010
4f20
30c0
2040
4020
4020
4020
4020
2040
30c0
4f20
8010
ENDCHAR
STARTCHAR yen
ENCODING 165
SWIDTH 556 0
DWIDTH 14 0
BBX 14 17 0 0
BITMAP
f87c
3018
3010
1820
1860
0c40
7cf8
0680
0780
0300
7ff8
0300
0300
0300
0300
0300
0fc0
ENDCHAR
STARTCHAR brokenbar
ENCODING 166
SWIDTH 500 0
DWIDTH 12 0
BBX 1 21 6 -4
BITMAP
80
80
80
80
80
80
80
80
80
00
00
00
80
80
80
80
80
80
80
80
80
ENDCHAR
STARTCHAR section
ENCODING 167
SWIDTH 500 0
DWIDTH 12 0
BBX 10 22 1 -4
BITMAP
1f80
6180
6080
e080
6000
7800
3e00
3f00
6380
c1c0
c0c0
c0c0
e080
7180
3e00
0f00
0380
0180
40c0
4180
6180
7e00
ENDCHAR
STARTCHAR dieresis
ENCODING 168
SWIDTH 500 0
DWIDTH 12 0
BBX 6 3 3 14
BITMAP
cc
cc
cc
ENDCHAR
STARTCHAR copyright
ENCODING 169
SWIDTH 900 0
DWIDTH 22 0
BBX 19 19 2 -1
BITMAP
01f800
060600
180100
300080
21fcc0
430440
460440
8c0020
8c0020
8c0020
8c0020
8c0020
460440
430440
21fcc0
300180
180100
060600
01f800
ENDCHAR
STARTCHAR ordfeminine
ENCODING 170
SWIDTH 380 0
DWIDTH 9 0
BBX 8 8 1 8
BITMAP
3c00
6600
0600
0e00
7600
c600
ce00
7700
ENDCHAR
STARTCHAR guillemotleft
ENCODING 171
SWIDTH 442 0
DWIDTH 11 0
BBX 9 9 1 1
BITMAP
1080
3180
6300
c600
8400
c600
6300
3180
1080
ENDCHAR
STARTCHAR logicalnot
ENCODING 172
SWIDTH 833 0
DWIDTH 21 0
BBX 15 6 3 4
BITMAP
fffe
0002
0002
0002
0002
0002
ENDCHAR
STARTCHAR hyphen
ENCODING 173
SWIDTH 319 0
DWIDTH 8 0
BBX 6 1 1 5
BITMAP
fc
ENDCHAR
STARTCHAR registered
ENCODING 174
SWIDTH 900 0
DWIDTH 22 0
BBX 19 19 2 -1
BITMAP
01f800
0e0600
180300
300080
67f8c0
431c40
430c40
830c20
831820
83e020
831820
831820
430c60
430c40
67c7c0
200080
180300
0e0600
01f800
ENDCHAR
STARTCHAR macron
ENCODING 175
SWIDTH 500 0
DWIDTH 12 0
BBX 7 2 3 15
BITMAP
fe
fe
ENDCHAR
STARTCHAR degree
ENCODING 176
SWIDTH 329 0
DWIDTH 8 0
BBX 7 7 1 11
BITMAP
38
44
82
82
82
44
38
ENDCHAR
STARTCHAR plusminus
ENCODING 177
SWIDTH 833 0
DWIDTH 21 0
BBX 15 13 3 1
BITMAP
0100
0100
0100
0100
fffe
0100
0100
0100
0100
0000
0000
0000
fffe
ENDCHAR
STARTCHAR twosuperior
ENCODING 178
SWIDTH 367 0
DWIDTH 9 0
BBX 7 11 1 7
BITMAP
7c
86
82
02
02
04
0c
30
60
82
fe
ENDCHAR
STARTCHAR threesuperior
ENCODING 179
SWIDTH 367 0
DWIDTH 9 0
BBX 7 11 1 7
BITMAP
7c
84
86
06
0c
38
06
02
82
84
78
ENDCHAR
STARTCHAR acute
ENCODING 180
SWIDTH 500 0
DWIDTH 12 0
BBX 5 5 5 13
BITMAP
38
30
60
40
c0
ENDCHAR
STARTCHAR mu
ENCODING 181
SWIDTH 548 0
DWIDTH 14 0
BBX 15 16 -1 -5
BITMAP
1830
1830
1830
1830
1020
3060
3060
3062
30e4
79e4
6f38
6000
4000
c000
c000
c000
ENDCHAR
STARTCHAR paragraph
ENCODING 182
SWIDTH 484 0
DWIDTH 12 0
BBX 10 19 1 -2
BITMAP
1fc0
7c80
7c80
fc80
fc80
fc80
fc80
7c80
7c80
1c80
0080
0080
0080
0080
0080
0080
0080
0080
0080
ENDCHAR
STARTCHAR periodcentered
ENCODING 183
SWIDTH 278 0
DWIDTH 7 0
BBX 3 3 2 7
BITMAP
e0
e0
e0
ENDCHAR
STARTCHAR cedilla
ENCODING 184
SWIDTH 500 0
DWIDTH 12 0
BBX 4 6 5 -6
BITMAP
40
40
70
10
10
e0
ENDCHAR
STARTCHAR onesuperior
ENCODING 185
SWIDTH 367 0
DWIDTH 9 0
BBX 5 11 2 7
BITMAP
30
d0
10
10
10
10
10
10
10
10
78
ENDCHAR
STARTCHAR ordmasculine
ENCODING 186
SWIDTH 405 0
DWIDTH 10 0
BBX 8 8 1 8
BITMAP
1800
6600
c300
c300
c300
c300
6600
1800
ENDCHAR
STARTCHAR guillemotright
ENCODING 187
SWIDTH 442 0
DWIDTH 11 0
BBX 9 9 1 1
BITMAP
8400
c600
6300
3180
1080
3180
6300
c600
8400
ENDCHAR
STARTCHAR onequarter
ENCODING 188
SWIDTH 867 0
DWIDTH 22 0
BBX 20 17 2 0
BITMAP
000600
300400
d00800
101800
101000
103000
102000
104000
10c040
7880c0
018140
030240
020440
060ff0
040040
080040
180040
ENDCHAR
STARTCHAR onehalf
ENCODING 189
SWIDTH 867 0
DWIDTH 22 0
BBX 19 17 2 0
BITMAP
000600
300400
d00800
101800
101000
103000
102000
104000
10c7c0
788860
018820
030020
020060
0600c0
040300
080420
180fe0
ENDCHAR
STARTCHAR threequarters
ENCODING 190
SWIDTH 867 0
DWIDTH 22 0
BBX 21 17 1 0
BITMAP
000300
7c0200
840400
860c00
040800
381800
061000
022000
866020
784060
00c0a0
018120
010220
0307f8
020020
040020
0c0020
ENDCHAR
STARTCHAR questiondown
ENCODING 191
SWIDTH 486 0
DWIDTH 12 0
BBX 9 17 1 0
BITMAP
0e00
0e00
0e00
0000
0000
0400
0400
0400
1c00
3000
6000
c000
c000
c000
c180
7380
3f00
ENDCHAR
STARTCHAR Agrave
ENCODING 192
SWIDTH 639 0
DWIDTH 16 0
BBX 16 23 0 0
BITMAP
0e0000
060000
030000
010000
018000
000000
018000
03c000
03c000
02c000
06e000
066000
046000
0c7000
0c3000
083000
1ff800
101800
101800
300c00
200c00
600e00
f81f00
ENDCHAR
STARTCHAR Aacute
ENCODING 193
SWIDTH 639 0
DWIDTH 16 0
BBX 16 23 0 0
BITMAP
007000
006000
00c000
008000
018000
000000
018000
03c000
03c000
02c000
06e000
066000
046000
0c7000
0c3000
083000
1ff800
101800
101800
300c00
200c00
600e00
f81f00
ENDCHAR
STARTCHAR Acircumflex
ENCODING 194
SWIDTH 639 0
DWIDTH 16 0
BBX 16 23 0 0
BITMAP
01c000
014000
036000
022000
063000
000000
018000
03c000
03c000
02c000
06e000
066000
046000
0c7000
0c3000
083000
1ff800
101800
101800
300c00
200c00
600e00
f81f00
ENDCHAR
STARTCHAR Atilde
ENCODING 195
SWIDTH 639 0
DWIDTH 16 0
BBX 16 23 0 0
BITMAP
031000
07f000
046000
000000
000000
000000
018000
03c000
03c000
02c000
06e000
066000
046000
0c7000
0c3000
083000
1ff800
101800
101800
300c00
200c00
600e00
f81f00
ENDCHAR
STARTCHAR Adieresis
ENCODING 196
SWIDTH 639 0
DWIDTH 16 0
BBX 16 22 0 0
BITMAP
066000
066000
066000
000000
000000
018000
03c000
03c000
02c000
06e000
066000
046000
0c7000
0c3000
083000
1ff800
101800
101800
300c00
200c00
600e00
f81f00
ENDCHAR
STARTCHAR Aring
ENCODING 197
SWIDTH 639 0
DWIDTH 16 0
BBX 16 24 0 0
BITMAP
03c000
044000
042000
042000
044000
03c000
000000
018000
03c000
03c000
02c000
06e000
066000
046000
0c7000
0c3000
083000
1ff800
101800
101800
300c00
200c00
600e00
f81f00
ENDCHAR
STARTCHAR AE
ENCODING 198
SWIDTH 866 0
DWIDTH 22 0
BBX 22 17 -1 0
BITMAP
00fff8
003c18
002c18
006c08
00cc00
008c00
018c20
030c20
030fe0
060c20
07fc20
0c0c00
180c00
180c04
300c0c
200c0c
f83ffc
ENDCHAR
STARTCHAR Ccedilla
ENCODING 199
SWIDTH 632 0
DWIDTH 16 0
BBX 14 23 1 -6
BITMAP
07f8
1c0c
3004
7004
6000
c000
c000
c000
c000
c000
c000
e000
6004
7004
3804
1c0c
07f8
0100
0100
01c0
0040
0040
0380
ENDCHAR
STARTCHAR Egrave
ENCODING 200
SWIDTH 576 0
DWIDTH 14 0
BBX 12 23 1 0
BITMAP
3800
1800
0c00
0400
0600
0000
ffe0
3060
3060
3020
3000
3000
3080
3080
3f80
3080
3080
3000
3000
3010
3030
3030
fff0
ENDCHAR
STARTCHAR Eacute
ENCODING 201
SWIDTH 576 0
DWIDTH 14 0
BBX 12 23 1 0
BITMAP
01c0
0180
0300
0200
0600
0000
ffe0
3060
3060
3020
3000
3000
3080
3080
3f80
3080
3080
3000
3000
3010
3030
3030
fff0
ENDCHAR
STARTCHAR Ecircumflex
ENCODING 202
SWIDTH 576 0
DWIDTH 14 0
BBX 12 23 1 0
BITMAP
0700
0500
0d80
0880
18c0
0000
ffe0
3060
3060
3020
3000
3000
3080
3080
3f80
3080
3080
3000
3000
3010
3030
3030
fff0
ENDCHAR
STARTCHAR Edieresis
ENCODING 203
SWIDTH 576 0
DWIDTH 14 0
BBX 12 22 1 0
BITMAP
1980
1980
1980
0000
0000
ffe0
3060
3060
3020
3000
3000
3080
3080
3f80
3080
3080
3000
3000
3010
3030
3030
fff0
ENDCHAR
STARTCHAR Igrave
ENCODING 204
SWIDTH 324 0
DWIDTH 8 0
BBX 7 23 0 0
BITMAP
e0
60
30
10
18
00
7e
18
18
18
18
18
18
18
18
18
18
18
18
18
18
18
7e
ENDCHAR
STARTCHAR Iacute
ENCODING 205
SWIDTH 324 0
DWIDTH 8 0
BBX 7 23 1 0
BITMAP
0e
0c
18
10
30
00
fc
30
30
30
30
30
30
30
30
30
30
30
30
30
30
30
fc
ENDCHAR
STARTCHAR Icircumflex
ENCODING 206
SWIDTH 324 0
DWIDTH 8 0
BBX 7 23 1 0
BITMAP
38
28
6c
44
c6
00
fc
30
30
30
30
30
30
30
30
30
30
30
30
30
30
30
fc
ENDCHAR
STARTCHAR Idieresis
ENCODING 207
SWIDTH 324 0
DWIDTH 8 0
BBX 6 22 1 0
BITMAP
cc
cc
cc
00
00
fc
30
30
30
30
30
30
30
30
30
30
30
30
30
30
30
fc
ENDCHAR
STARTCHAR Eth
ENCODING 208
SWIDTH 694 0
DWIDTH 17 0
BBX 16 17 0 0
BITMAP
7fe000
183800
180c00
180600
180600
180300
180300
180300
ff8300
180300
180300
180300
180600
180600
180c00
183800
7fe000
ENDCHAR
STARTCHAR Ntilde
ENCODING 209
SWIDTH 713 0
DWIDTH 18 0
BBX 16 23 1 0
BITMAP
031000
07f000
046000
000000
000000
000000
f01f00
380400
3c0400
2c0400
2e0400
270400
230400
238400
21c400
20c400
20e400
207400
203400
203c00
201c00
200c00
f80c00
ENDCHAR
STARTCHAR Ograve
ENCODING 210
SWIDTH 731 0
DWIDTH 18 0
BBX 16 23 1 0
BITMAP
1c0000
0c0000
060000
020000
030000
000000
07e000
3c3c00
300c00
600600
600600
c00300
c00300
c00300
c00300
c00300
c00300
c00300
600600
600600
300c00
1c3800
07e000
ENDCHAR
STARTCHAR Oacute
ENCODING 211
SWIDTH 731 0
DWIDTH 18 0
BBX 16 23 1 0
BITMAP
00e000
00c000
018000
010000
030000
000000
07e000
3c3c00
300c00
600600
600600
c00300
c00300
c00300
c00300
c00300
c00300
c00300
600600
600600
300c00
1c3800
07e000
ENDCHAR
STARTCHAR Ocircumflex
ENCODING 212
SWIDTH 731 0
DWIDTH 18 0
BBX 16 23 1 0
BITMAP
038000
028000
06c000
044000
0c6000
000000
07e000
3c3c00
300c00
600600
600600
c00300
c00300
c00300
c00300
c00300
c00300
c00300
600600
600600
300c00
1c3800
07e000
ENDCHAR
STARTCHAR Otilde
ENCODING 213
SWIDTH 731 0
DWIDTH 18 0
BBX 16 23 1 0
BITMAP
062000
0fe000
08c000
000000
000000
000000
07e000
3c3c00
300c00
600600
600600
c00300
c00300
c00300
c00300
c00300
c00300
c00300
600600
600600
300c00
1c3800
07e000
ENDCHAR
STARTCHAR Odieresis
ENCODING 214
SWIDTH 731 0
DWIDTH 18 0
BBX 16 22 1 0
BITMAP
0cc000
0cc000
0cc000
000000
000000
07e000
3c3c00
300c00
600600
600600
c00300
c00300
c00300
c00300
c00300
c00300
c00300
600600
600600
300c00
1c3800
07e000
ENDCHAR
STARTCHAR multiply
ENCODING 215
SWIDTH 833 0
DWIDTH 21 0
BBX 14 14 4 0
BITMAP
4008
e01c
7038
3870
1ce0
0fc0
0780
0780
0fc0
1ce0
3870
7038
e01c
4008
ENDCHAR
STARTCHAR Oslash
ENCODING 216
SWIDTH 731 0
DWIDTH 18 0
BBX 16 21 1 -2
BITMAP
000400
000600
07fc00
1c3800
301c00
603600
602600
c04300
c0c300
c08300
c18300
c30300
c20300
c60300
6c0600
680600
380c00
3c3c00
2fe000
600000
400000
ENDCHAR
STARTCHAR Ugrave
ENCODING 217
SWIDTH 694 0
DWIDTH 17 0
BBX 15 23 1 0
BITMAP
0e00
0600
0300
0100
0180
0000
fc7e
3018
3018
3018
3018
3018
3018
3018
3018
3018
3018
3018
3018
3018
3830
1c70
0fc0
ENDCHAR
STARTCHAR Uacute
ENCODING 218
SWIDTH 694 0
DWIDTH 17 0
BBX 15 23 1 0
BITMAP
0070
0060
00c0
0080
0180
0000
fc7e
3018
3018
3018
3018
3018
3018
3018
3018
3018
3018
3018
3018
3018
3830
1c70
0fc0
ENDCHAR
STARTCHAR Ucircumflex
ENCODING 219
SWIDTH 694 0
DWIDTH 17 0
BBX 15 23 1 0
BITMAP
01c0
0140
0360
0220
0630
0000
fc7e
3018
3018
3018
3018
3018
3018
3018
3018
3018
3018
3018
3018
3018
3830
1c70
0fc0
ENDCHAR
STARTCHAR Udieresis
ENCODING 220
SWIDTH 694 0
DWIDTH 17 0
BBX 15 22 1 0
BITMAP
0660
0660
0660
0000
0000
fc7e
3018
3018
3018
3018
3018
3018
3018
3018
3018
3018
3018
3018
3018
3830
1c70
0fc0
ENDCHAR
STARTCHAR Yacute
ENCODING 221
SWIDTH 586 0
DWIDTH 15 0
BBX 16 23 0 0
BITMAP
00e000
00c000
018000
010000
030000
000000
fc1f00
300c00
380c00
1c1800
0c1000
0e3000
066000
074000
03c000
018000
018000
018000
018000
018000
018000
018000
07e000
ENDCHAR
STARTCHAR Thorn
ENCODING 222
SWIDTH 558 0
DWIDTH 14 0
BBX 12 17 1 0
BITMAP
fc00
3000
3000
3fc0
30e0
3070
3030
3030
3030
3030
3030
3060
30e0
3f80
3000
3000
fc00
ENDCHAR
STARTCHAR germandbls
ENCODING 223
SWIDTH 609 0
DWIDTH 15 0
BBX 14 18 0 0
BITMAP
07c0
0c60
1830
1030
3030
3030
30e0
3180
3180
3180
31c0
30f0
3038
301c
310c
310c
3118
fdf0
ENDCHAR
STARTCHAR agrave
ENCODING 224
SWIDTH 507 0
DWIDTH 13 0
BBX 12 18 1 0
BITMAP
7000
3000
1800
0800
0c00
0000
1f80
61c0
60c0
00c0
03c0
1cc0
60c0
c0c0
c0c0
c0c0
e3c0
7cf0
ENDCHAR
STARTCHAR aacute
ENCODING 225
SWIDTH 507 0
DWIDTH 13 0
BBX 12 18 1 0
BITMAP
0380
0300
0600
0400
0c00
0000
1f80
61c0
60c0
00c0
03c0
1cc0
60c0
c0c0
c0c0
c0c0
e3c0
7cf0
ENDCHAR
STARTCHAR acircumflex
ENCODING 226
SWIDTH 507 0
DWIDTH 13 0
BBX 12 18 1 0
BITMAP
0e00
0a00
1b00
1100
3180
0000
1f80
61c0
60c0
00c0
03c0
1cc0
60c0
c0c0
c0c0
c0c0
e3c0
7cf0
ENDCHAR
STARTCHAR atilde
ENCODING 227
SWIDTH 507 0
DWIDTH 13 0
BBX 12 18 1 0
BITMAP
1880
3f80
2300
0000
0000
0000
1f80
61c0
60c0
00c0
03c0
1cc0
60c0
c0c0
c0c0
c0c0
e3c0
7cf0
ENDCHAR
STARTCHAR adieresis
ENCODING 228
SWIDTH 507 0
DWIDTH 13 0
BBX 12 17 1 0
BITMAP
3300
3300
3300
0000
0000
1f80
61c0
60c0
00c0
03c0
1cc0
60c0
c0c0
c0c0
c0c0
e3c0
7cf0
ENDCHAR
STARTCHAR aring
ENCODING 229
SWIDTH 507 0
DWIDTH 13 0
BBX 12 19 1 0
BITMAP
0e00
1100
3080
3080
1100
0e00
0000
1f80
61c0
60c0
00c0
03c0
1cc0
60c0
c0c0
c0c0
c0c0
e3c0
7cf0
ENDCHAR
STARTCHAR ae
ENCODING 230
SWIDTH 725 0
DWIDTH 18 0
BBX 16 12 1 0
BITMAP
3f3c00
63c600
61c300
618300
018300
07ff00
398000
618000
c18000
c18000
c3e100
7c7e00
ENDCHAR
STARTCHAR ccedilla
ENCODING 231
SWIDTH 446 0
DWIDTH 11 0
BBX 9 18 1 -6
BITMAP
1e00
3380
6380
4380
c000
c000
c000
c000
c000
6000
7080
3f00
0400
0400
0700
0100
0100
0e00
ENDCHAR
STARTCHAR egrave
ENCODING 232
SWIDTH 491 0
DWIDTH 12 0
BBX 10 18 1 0
BITMAP
7000
3000
1800
0800
0c00
0000
1f00
3180
60c0
40c0
c0c0
ffc0
c000
c000
c000
6000
7040
1f80
ENDCHAR
STARTCHAR eacute
ENCODING 233
SWIDTH 491 0
DWIDTH 12 0
BBX 10 18 1 0
BITMAP
0380
0300
0600
0400
0c00
0000
1f00
3180
60c0
40c0
c0c0
ffc0
c000
c000
c000
6000
7040
1f80
ENDCHAR
STARTCHAR ecircumflex
ENCODING 234
SWIDTH 491 0
DWIDTH 12 0
BBX 10 18 1 0
BITMAP
0e00
0a00
1b00
1100
3180
0000
1f00
3180
60c0
40c0
c0c0
ffc0
c000
c000
c000
6000
7040
1f80
ENDCHAR
STARTCHAR edieresis
ENCODING 235
SWIDTH 491 0
DWIDTH 12 0
BBX 10 17 1 0
BITMAP
3300
3300
3300
0000
0000
1f00
3180
60c0
40c0
c0c0
ffc0
c000
c000
c000
6000
7040
1f80
ENDCHAR
STARTCHAR igrave
ENCODING 236
SWIDTH 280 0
DWIDTH 7 0
BBX 8 18 -1 0
BITMAP
e000
6000
3000
1000
1800
0000
0c00
3c00
0c00
0c00
0c00
0c00
0c00
0c00
0c00
0c00
0c00
3f00
ENDCHAR
STARTCHAR iacute
ENCODING 237
SWIDTH 280 0
DWIDTH 7 0
BBX 6 18 1 0
BITMAP
1c
18
30
20
60
00
30
f0
30
30
30
30
30
30
30
30
30
fc
ENDCHAR
STARTCHAR icircumflex
ENCODING 238
SWIDTH 280 0
DWIDTH 7 0
BBX 7 18 0 0
BITMAP
38
28
6c
44
c6
00
18
78
18
18
18
18
18
18
18
18
18
7e
ENDCHAR
STARTCHAR idieresis
ENCODING 239
SWIDTH 280 0
DWIDTH 7 0
BBX 7 17 0 0
BITMAP
cc
cc
cc
00
00
18
78
18
18
18
18
18
18
18
18
18
7e
ENDCHAR
STARTCHAR eth
ENCODING 240
SWIDTH 528 0
DWIDTH 13 0
BBX 11 18 1 0
BITMAP
1880
3d80
0e00
1f00
3300
0180
1fc0
30c0
6060
c060
c060
c060
c060
c060
c040
60c0
3180
1e00
ENDCHAR
STARTCHAR ntilde
ENCODING 241
SWIDTH 569 0
DWIDTH 14 0
BBX 13 18 1 0
BITMAP
0c40
1fc0
1180
0000
0000
0000
33c0
ffe0
3060
3060
3060
3060
3060
3060
3060
3060
3060
fcf8
ENDCHAR
STARTCHAR ograve
ENCODING 242
SWIDTH 539 0
DWIDTH 13 0
BBX 11 18 1 0
BITMAP
3800
1800
0c00
0400
0600
0000
1f00
3180
60c0
c060
c060
c060
c060
c060
c060
60c0
3180
1f00
ENDCHAR
STARTCHAR oacute
ENCODING 243
SWIDTH 539 0
DWIDTH 13 0
BBX 11 18 1 0
BITMAP
01c0
0180
0300
0200
0600
0000
1f00
3180
60c0
c060
c060
c060
c060
c060
c060
60c0
3180
1f00
ENDCHAR
STARTCHAR ocircumflex
ENCODING 244
SWIDTH 539 0
DWIDTH 13 0
BBX 11 18 1 0
BITMAP
0700
0500
0d80
0880
18c0
0000
1f00
3180
60c0
c060
c060
c060
c060
c060
c060
60c0
3180
1f00
ENDCHAR
STARTCHAR otilde
ENCODING 245
SWIDTH 539 0
DWIDTH 13 0
BBX 11 18 1 0
BITMAP
0c40
1fc0
1180
0000
0000
0000
1f00
3180
60c0
c060
c060
c060
c060
c060
c060
60c0
3180
1f00
ENDCHAR
STARTCHAR odieresis
ENCODING 246
SWIDTH 539 0
DWIDTH 13 0
BBX 11 17 1 0
BITMAP
1980
1980
1980
0000
0000
1f00
3180
60c0
c060
c060
c060
c060
c060
c060
60c0
3180
1f00
ENDCHAR
STARTCHAR divide
ENCODING 247
SWIDTH 833 0
DWIDTH 21 0
BBX 15 11 3 2
BITMAP
0380
0380
0380
0000
0000
fffe
0000
0000
0380
0380
0380
ENDCHAR
STARTCHAR oslash
ENCODING 248
SWIDTH 539 0
DWIDTH 13 0
BBX 11 16 1 -2
BITMAP
0040
0040
1f80
3180
61c0
c260
c260
c460
cc60
c860
d060
70c0
3180
3f00
4000
4000
ENDCHAR
STARTCHAR ugrave
ENCODING 249
SWIDTH 569 0
DWIDTH 14 0
BBX 13 18 1 0
BITMAP
3800
1800
0c00
0400
0600
0000
3060
f1e0
3060
3060
3060
3060
3060
3060
3060
3060
38e0
1f78
ENDCHAR
STARTCHAR uacute
ENCODING 250
SWIDTH 569 0
DWIDTH 14 0
BBX 13 18 1 0
BITMAP
01c0
0180
0300
0200
0600
0000
3060
f1e0
3060
3060
3060
3060
3060
3060
3060
3060
38e0
1f78
ENDCHAR
STARTCHAR ucircumflex
ENCODING 251
SWIDTH 569 0
DWIDTH 14 0
BBX 13 18 1 0
BITMAP
0700
0500
0d80
0880
18c0
0000
3060
f1e0
3060
3060
3060
3060
3060
3060
3060
3060
38e0
1f78
ENDCHAR
STARTCHAR udieresis
ENCODING 252
SWIDTH 569 0
DWIDTH 14 0
BBX 13 17 1 0
BITMAP
1980
1980
1980
0000
0000
3060
f1e0
3060
3060
3060
3060
3060
3060
3060
3060
38e0
1f78
ENDCHAR
STARTCHAR yacute
ENCODING 253
SWIDTH 495 0
DWIDTH 13 0
BBX 13 24 0 -6
BITMAP
01c0
0180
0300
0200
0600
0000
fc78
3020
3020
3860
1840
1840
1cc0
0c80
0d80
0700
0700
0700
0200
0200
0400
0400
6800
7000
ENDCHAR
STARTCHAR thorn
ENCODING 254
SWIDTH 551 0
DWIDTH 14 0
BBX 12 24 1 -6
BITMAP
3000
f000
3000
3000
3000
3000
37c0
38e0
3060
3030
3030
3030
3030
3030
3020
3060
30c0
3f80
3000
3000
3000
3000
3000
fc00
ENDCHAR
STARTCHAR ydieresis
ENCODING 255
SWIDTH 495 0
DWIDTH 13 0
BBX 13 23 0 -6
BITMAP
1980
1980
1980
0000
0000
fc78
3020
3020
3860
1840
1840
1cc0
0c80
0d80
0700
0700
0700
0200
0200
0400
0400
6800
7000
ENDCHAR
ENDFONT
